<svg xmlns="http://www.w3.org/2000/svg" version="1.1" xmlns:xlink="http://www.w3.org/1999/xlink" xmlns:svgjs="http://svgjs.dev/svgjs" width="1440" height="560" preserveAspectRatio="none" viewBox="0 0 1440 560"><g mask="url(&quot;#SvgjsMask1011&quot;)" fill="none"><rect width="1440" height="560" x="0" y="0" fill="rgba(0, 0, 0, 1)"></rect><path d="M 0,280 C 57.6,247.6 172.8,144.2 288,118 C 403.2,91.8 460.8,156.4 576,149 C 691.2,141.6 748.8,72.6 864,81 C 979.2,89.4 1036.8,205.8 1152,191 C 1267.2,176.2 1382.4,43.8 1440,7L1440 560L0 560z" fill="rgba(8, 8, 8, 1)"></path><path d="M 0,394 C 96,425.8 288,548.2 480,553 C 672,557.8 768,420.6 960,418 C 1152,415.4 1344,515.6 1440,540L1440 560L0 560z" fill="rgba(18, 18, 18, 1)"></path></g><defs><mask id="SvgjsMask1011"><rect width="1440" height="560" fill="#ffffff"></rect></mask></defs></svg>