<svg xmlns="http://www.w3.org/2000/svg" version="1.1" xmlns:xlink="http://www.w3.org/1999/xlink" xmlns:svgjs="http://svgjs.dev/svgjs" width="1440" height="560" preserveAspectRatio="none" viewBox="0 0 1440 560"><g mask="url(&quot;#SvgjsMask1068&quot;)" fill="none"><rect width="1440" height="560" x="0" y="0" fill="rgba(18, 18, 18, 1)"></rect><path d="M 0,236 C 48,197 144,56.2 240,41 C 336,25.8 384,142.6 480,160 C 576,177.4 624,130.8 720,128 C 816,125.2 864,169 960,146 C 1056,123 1104,6.4 1200,13 C 1296,19.6 1392,145.8 1440,179L1440 560L0 560z" fill="rgba(8, 8, 8, 1)"></path><path d="M 0,286 C 96,330.4 288,485 480,508 C 672,531 768,410.4 960,401 C 1152,391.6 1344,449 1440,461L1440 560L0 560z" fill="rgba(0, 0, 0, 1)"></path></g><defs><mask id="SvgjsMask1068"><rect width="1440" height="560" fill="#ffffff"></rect></mask></defs></svg>